<?xml version="1.0" encoding="utf-8"?>
<!-- Generator: Adobe Illustrator 21.0.0, SVG Export Plug-In . SVG Version: 6.00 Build 0)  -->
<!DOCTYPE svg PUBLIC "-//W3C//DTD SVG 1.1//EN" "http://www.w3.org/Graphics/SVG/1.1/DTD/svg11.dtd">
<svg version="1.1" id="Layer_1" xmlns="http://www.w3.org/2000/svg" xmlns:xlink="http://www.w3.org/1999/xlink" x="0px" y="0px"
	 viewBox="0 0 183.3 183.3" enable-background="new 0 0 183.3 183.3" xml:space="preserve">
<g>
	<circle fill="#231F20" cx="91.7" cy="91.7" r="89.5"/>
	<g>
		<path fill="none" d="M91.7,170.9c43.7,0,79.2-35.5,79.2-79.2c0-43.7-35.5-79.2-79.2-79.2C48,12.5,12.5,48,12.5,91.7
			C12.5,135.3,48,170.9,91.7,170.9z M82.1,61.2c0.7-0.5,1.5-0.7,2.3-0.7c1.2,0,2.4,0.6,3.1,1.6l19.6,27c1,1.3,1,3.1,0.1,4.4
			l-18.7,27.7c-1.2,1.8-3.6,2.2-5.4,1c-1.8-1.2-2.2-3.6-1-5.4l17.1-25.4l-18-24.8C80,64.9,80.4,62.5,82.1,61.2z"/>
		<path fill="#FFFFFF" d="M91.7,181.2c49.4,0,89.5-40.1,89.5-89.5S141.1,2.2,91.7,2.2C42.2,2.2,2.2,42.2,2.2,91.7
			S42.2,181.2,91.7,181.2z M91.7,12.5c43.7,0,79.2,35.5,79.2,79.2c0,43.7-35.5,79.2-79.2,79.2c-43.7,0-79.2-35.5-79.2-79.2
			C12.5,48,48,12.5,91.7,12.5z"/>
		<path fill="#FFFFFF" d="M99.3,91.4l-17.1,25.4c-1.2,1.8-0.7,4.2,1,5.4c1.8,1.2,4.2,0.7,5.4-1l18.7-27.7c0.9-1.3,0.9-3.1-0.1-4.4
			l-19.6-27c-0.8-1-1.9-1.6-3.1-1.6c-0.8,0-1.6,0.2-2.3,0.7c-1.7,1.3-2.1,3.7-0.9,5.4L99.3,91.4z"/>
	</g>
</g>
</svg>
