<?xml version="1.0" encoding="utf-8"?>
<!-- Generator: Adobe Illustrator 21.0.0, SVG Export Plug-In . SVG Version: 6.00 Build 0)  -->
<!DOCTYPE svg PUBLIC "-//W3C//DTD SVG 1.1//EN" "http://www.w3.org/Graphics/SVG/1.1/DTD/svg11.dtd">
<svg version="1.1" id="Layer_1" xmlns="http://www.w3.org/2000/svg" xmlns:xlink="http://www.w3.org/1999/xlink" x="0px" y="0px"
	 viewBox="0 0 183.3 183.3" enable-background="new 0 0 183.3 183.3" xml:space="preserve">
<g>
	<circle fill="#231F20" cx="91.7" cy="91.7" r="89"/>
	<g>
		<path fill="none" d="M91.7,12.9c-43.4,0-78.8,35.3-78.8,78.8c0,43.4,35.3,78.8,78.8,78.8c43.4,0,78.8-35.3,78.8-78.8
			C170.4,48.2,135.1,12.9,91.7,12.9z M101.1,122c-0.7,0.5-1.5,0.7-2.3,0.7c-1.2,0-2.4-0.5-3.1-1.6L76.3,94.2c-0.9-1.3-1-3.1-0.1-4.4
			l18.6-27.5c1.2-1.8,3.6-2.2,5.3-1c1.8,1.2,2.2,3.6,1,5.3L84.1,91.9l17.9,24.7C103.2,118.3,102.9,120.7,101.1,122z"/>
		<path fill="#FFFFFF" d="M91.7,2.7c-49.2,0-89,39.8-89,89s39.8,89,89,89c49.2,0,89-39.8,89-89S140.8,2.7,91.7,2.7z M91.7,170.4
			c-43.4,0-78.8-35.3-78.8-78.8c0-43.4,35.3-78.8,78.8-78.8c43.4,0,78.8,35.3,78.8,78.8C170.4,135.1,135.1,170.4,91.7,170.4z"/>
		<path fill="#FFFFFF" d="M84.1,91.9l17.1-25.3c1.2-1.8,0.7-4.1-1-5.3c-1.8-1.2-4.1-0.7-5.3,1L76.2,89.8c-0.9,1.3-0.9,3.1,0.1,4.4
			l19.5,26.9c0.8,1,1.9,1.6,3.1,1.6c0.8,0,1.6-0.2,2.3-0.7c1.7-1.2,2.1-3.6,0.8-5.4L84.1,91.9z"/>
	</g>
</g>
</svg>
