<?xml version="1.0" encoding="iso-8859-1"?>
<!-- Generator: Adobe Illustrator 19.0.0, SVG Export Plug-In . SVG Version: 6.00 Build 0)  -->
<svg xmlns="http://www.w3.org/2000/svg" xmlns:xlink="http://www.w3.org/1999/xlink" version="1.1" id="Layer_1" x="0px" y="0px" viewBox="0 0 512 512" style="enable-background:new 0 0 512 512;" xml:space="preserve" width="512px" height="512px">
<g>
	<g>
		<g>
			<path d="M511.568,418.118c-13.526-55.859-35.774-92.724-70.013-116.019c-28.915-19.671-65.28-26.181-105.161-18.822     c-29.723,5.484-50.845,16.623-51.722,17.091c-3.019,1.605-6.032,3.218-9.041,4.828c-39.524,21.147-76.859,41.123-120.457,43.426     c-3.147,0.019-6.429,0.411-9.606,0.791c-1.519,0.183-2.972,0.352-4.317,0.473v-88.935l114.876-115.407     c3.243-3.257,3.243-8.523,0-11.78L138.818,15.915c-0.002-0.001-0.003-0.003-0.006-0.004c-0.195-0.196-0.4-0.382-0.613-0.557     c-0.089-0.073-0.183-0.136-0.274-0.205c-0.126-0.095-0.249-0.193-0.381-0.282c-0.124-0.082-0.252-0.155-0.378-0.23     c-0.107-0.063-0.21-0.131-0.32-0.19c-0.134-0.071-0.271-0.132-0.406-0.196c-0.11-0.052-0.218-0.108-0.332-0.155     c-0.137-0.057-0.278-0.104-0.417-0.153c-0.117-0.041-0.232-0.087-0.351-0.124c-0.148-0.046-0.299-0.079-0.45-0.116     c-0.115-0.028-0.226-0.061-0.342-0.085c-0.2-0.04-0.402-0.067-0.603-0.092c-0.068-0.009-0.134-0.023-0.203-0.03     c-0.281-0.028-0.562-0.042-0.844-0.042h-32.536c-4.611,0-8.349,3.737-8.349,8.349v334.226     c-14.542,3.37-32.202,8.116-49.151,15.429c-10.828,4.671-24.468,11.46-33.923,22.587c-13.797,16.234-11.451,37.43,5.835,52.744     c19.524,17.296,46.069,25.546,69.42,31.921c31.906,8.711,67.84,14.454,109.857,17.56c20.539,1.517,41.178,2.276,61.788,2.276     c22.599,0,45.162-0.912,67.517-2.735c5.081-0.415,10.149-0.879,15.063-1.38c4.586-0.468,7.927-4.565,7.458-9.153     c-0.468-4.586-4.556-7.934-9.153-7.458c-4.801,0.489-9.758,0.943-14.726,1.348c-41.885,3.417-84.516,3.568-126.718,0.45     c-40.933-3.026-75.833-8.592-106.69-17.016c-21.531-5.878-45.912-13.398-62.745-28.312c-5.008-4.436-15.441-16.185-4.183-29.431     c7.175-8.442,18.086-13.871,27.814-18.067c14.366-6.198,29.501-10.468,42.536-13.603v50.023c0,4.612,3.738,8.349,8.349,8.349     H132.9c4.611,0,8.349-3.737,8.349-8.349v-56.578c2.076-0.141,4.216-0.394,6.303-0.645c2.767-0.332,5.63-0.673,7.85-0.673     c0.144,0,0.286-0.003,0.43-0.011c47.411-2.442,88.215-24.275,127.675-45.387c2.998-1.604,5.999-3.209,9.012-4.812     c0.777-0.413,78.349-40.902,139.642,0.799c30.585,20.807,50.65,54.495,63.147,106.017c-0.052,2.347-4.789,8.758-9.705,13.148     c-25.951,19.446-55.555,26.082-86.891,33.103c-3.091,0.692-6.18,1.385-9.262,2.089c-4.494,1.028-7.306,5.505-6.278,10     c0.885,3.869,4.325,6.49,8.132,6.49c0.617,0,1.242-0.069,1.869-0.211c3.057-0.699,6.123-1.386,9.192-2.074     c31.787-7.122,64.655-14.488,93.547-36.255c0.163-0.122,0.321-0.252,0.474-0.385     C500.717,444.037,514.614,430.697,511.568,418.118z M124.552,414.865h-15.84V30.154h15.84V414.865z M141.25,42.027l97.178,97.627     l-97.178,97.627V42.027z" fill="#FFFFFF"/>
			<path d="M177.709,413.694c0,18.34,29.729,26.693,57.35,26.693c27.622,0,57.351-8.353,57.351-26.693     c0-18.341-29.729-26.693-57.351-26.693C207.438,387.001,177.709,395.354,177.709,413.694z M275.571,413.694     c-2.101,3.148-15.88,9.995-40.51,9.995c-24.63,0-38.41-6.846-40.51-9.995c2.101-3.149,15.879-9.995,40.51-9.995     C259.692,403.698,273.47,410.545,275.571,413.694z" fill="#FFFFFF"/>
		</g>
	</g>
</g>
<g>
</g>
<g>
</g>
<g>
</g>
<g>
</g>
<g>
</g>
<g>
</g>
<g>
</g>
<g>
</g>
<g>
</g>
<g>
</g>
<g>
</g>
<g>
</g>
<g>
</g>
<g>
</g>
<g>
</g>
</svg>
