<?xml version="1.0" encoding="utf-8"?>
<!-- Generator: Adobe Illustrator 21.0.0, SVG Export Plug-In . SVG Version: 6.00 Build 0)  -->
<!DOCTYPE svg PUBLIC "-//W3C//DTD SVG 1.1//EN" "http://www.w3.org/Graphics/SVG/1.1/DTD/svg11.dtd">
<svg version="1.1" id="Layer_1" xmlns="http://www.w3.org/2000/svg" xmlns:xlink="http://www.w3.org/1999/xlink" x="0px" y="0px"
	 viewBox="0 0 300 300" enable-background="new 0 0 300 300" xml:space="preserve">
<g>
	<path fill="#186888" d="M255.9,59.3c-2.3,0-4.4,0.6-6.4,1.7c-1.5,0.9-3.3-0.2-3.3-1.9l4.2-38.2l-38.3-4.2c-1.7,0-2.8,1.9-1.9,3.3
		c1.1,1.9,1.7,4.1,1.7,6.4c0,8.4-8.4,15.1-18.7,15.2c-10.3,0-18.8-6.7-18.8-15.1c0-2.3,0.6-4.4,1.7-6.4c0.9-1.5-0.2-3.3-1.9-3.3
		L136,21.1L136,21l-38.2,4.4c-1.7,0-2.8-1.8-1.9-3.3c1.1-1.9,1.7-4.1,1.7-6.4c0-8.4-8.4-15.1-18.8-15.1c-10.3,0-18.7,6.8-18.7,15.2
		c0,2.3,0.6,4.4,1.7,6.4c0.9,1.5-0.2,3.3-1.9,3.3l-38.2-4.2l-4.2,38.3c0,1.7,1.9,2.8,3.3,1.9c1.9-1.1,4.1-1.7,6.4-1.7
		c8.4,0,15.1,8.4,15.2,18.7c0,10.3-6.7,18.8-15.1,18.8c-2.3,0-4.4-0.6-6.4-1.7c-1.5-0.9-3.3,0.2-3.3,1.9l4.4,38.3l0,0l4.4,38.2
		c0,1.7-1.8,2.8-3.3,1.9c-1.9-1.1-4.1-1.7-6.4-1.7c-8.4,0-15.1,8.4-15.1,18.8c0,10.3,6.8,18.7,15.2,18.7c2.3,0,4.4-0.6,6.4-1.7
		c1.5-0.9,3.3,0.2,3.3,1.9l-4.2,38.2l38.3,4.2c1.7,0,2.8-1.9,1.9-3.3c-1.1-1.9-1.7-4.1-1.7-6.4c0-8.4,8.4-15.1,18.7-15.2
		c10.3,0,18.8,6.7,18.8,15.1c0,2.3-0.6,4.4-1.7,6.4c-0.9,1.5,0.2,3.3,1.9,3.3l38.3-4.4l-4.4-38.2c0-1.7,1.8-2.8,3.3-1.9
		c1.9,1.1,4.1,1.7,6.4,1.7c8.4,0,15.1-8.4,15.1-18.8c0-10.3-6.8-18.7-15.2-18.7c-2.3,0-4.4,0.6-6.4,1.7c-1.5,0.9-3.3-0.2-3.3-1.9
		l4.2-38.2l-0.1,0l0.1-0.1l38.3,4.2c1.7,0,2.8-1.9,1.9-3.3c-1.1-1.9-1.7-4.1-1.7-6.4c0-8.4,8.4-15.1,18.7-15.2
		c10.3,0,18.8,6.7,18.8,15.1c0,2.3-0.6,4.4-1.7,6.4c-0.9,1.5,0.2,3.3,1.9,3.3l38.3-4.4L246.3,97c0-1.7,1.8-2.8,3.3-1.9
		c1.9,1.1,4.1,1.7,6.4,1.7c8.4,0,15.1-8.4,15.1-18.8C271.1,67.6,264.3,59.3,255.9,59.3z"/>
	<g>
		<path fill="#4DA2C4" d="M130.9,59.5c2.3,0,4.4,0.6,6.4,1.7c1.5,0.9,3.3-0.2,3.3-1.9L136.3,21l-38.2,4.3c-1.7,0-2.8-1.9-1.9-3.3
			c1.1-1.9,1.7-4.1,1.7-6.4c0-8.4-8.4-15.1-18.7-15.1S60.4,7.3,60.4,15.6c0,2.3,0.6,4.4,1.7,6.4c0.9,1.5-0.2,3.3-1.9,3.3L22,21
			l-4.3,38.3c0,1.7,1.9,2.8,3.3,1.9c1.9-1.1,4.1-1.7,6.4-1.7c8.4,0,15.1,8.4,15.1,18.7S35.8,97,27.5,97c-2.3,0-4.4-0.6-6.4-1.7
			c-1.5-0.9-3.3,0.2-3.3,1.9l4.3,38.3l38.2-4.3c1.7,0,2.8,1.9,1.9,3.3c-1.1,1.9-1.7,4.1-1.7,6.4c0,8.4,8.4,15.1,18.7,15.1
			s18.7-6.8,18.7-15.1c0-2.3-0.6-4.4-1.7-6.4c-0.9-1.5,0.2-3.3,1.9-3.3l38.2,4.3l4.3-38.3c0-1.7-1.9-2.8-3.3-1.9
			c-1.9,1.1-4.1,1.7-6.4,1.7c-8.4,0-15.1-8.4-15.1-18.7S122.5,59.5,130.9,59.5z"/>
		<path fill="#4DA2C4" d="M277.1,193.7c2.2-0.5,4.5-0.3,6.6,0.3c1.6,0.5,3.2-0.9,2.9-2.6L274.3,155l-36.4,12.3
			c-1.7,0.4-3.1-1.2-2.6-2.9c0.7-2.1,0.8-4.4,0.3-6.6c-1.8-8.2-11.4-13-21.5-10.8c-10.1,2.2-16.9,10.6-15.1,18.8
			c0.5,2.2,1.5,4.2,3,5.8c1.2,1.3,0.5,3.3-1.2,3.7l-38.3,3.9l3.9,38.3c0.4,1.7,2.4,2.3,3.7,1.2c1.7-1.5,3.6-2.6,5.8-3
			c8.2-1.8,16.6,5,18.8,15.1c2.2,10.1-2.6,19.7-10.8,21.5c-2.2,0.5-4.5,0.3-6.6-0.3c-1.6-0.5-3.2,0.9-2.9,2.6l12.3,36.5l36.4-12.3
			c1.7-0.4,3.1,1.2,2.6,2.9c-0.7,2.1-0.8,4.4-0.3,6.6c1.8,8.2,11.4,13,21.5,10.8c10.1-2.2,16.9-10.6,15.1-18.8
			c-0.5-2.2-1.5-4.2-3-5.8c-1.2-1.3-0.5-3.3,1.2-3.7l38.3-3.9l-3.9-38.3c-0.4-1.7-2.4-2.3-3.7-1.2c-1.7,1.5-3.6,2.6-5.8,3
			c-8.2,1.8-16.6-5-18.8-15.1C264.1,205.1,269,195.5,277.1,193.7z"/>
	</g>
</g>
</svg>
