<?xml version="1.0" encoding="iso-8859-1"?>
<!-- Generator: Adobe Illustrator 19.0.0, SVG Export Plug-In . SVG Version: 6.00 Build 0)  -->
<svg xmlns="http://www.w3.org/2000/svg" xmlns:xlink="http://www.w3.org/1999/xlink" version="1.1" id="Layer_1" x="0px" y="0px" viewBox="0 0 512 512" style="enable-background:new 0 0 512 512;" xml:space="preserve" width="512px" height="512px">
<g>
	<g>
		<path d="M471.339,266.859c0.021-0.064,0.043-0.192,0.064-0.235C493.952,265.536,512,246.848,512,224    c0-23.531-19.136-42.667-42.667-42.667v-10.667c0-41.173-33.493-74.667-74.667-74.667H117.333    c-41.173,0-74.667,33.493-74.667,74.667v10.667C19.136,181.333,0,200.469,0,224c0,22.848,18.027,41.557,40.597,42.624    c0.021,0.064,0.043,0.192,0.064,0.235C18.091,267.947,0,286.485,0,309.333C0,332.864,19.136,352,42.667,352v32    c0,17.643,14.357,32,32,32H96c17.643,0,32-14.357,32-32v-32h256v32c0,17.643,14.357,32,32,32h21.333c17.643,0,32-14.357,32-32v-32    C492.864,352,512,332.864,512,309.333C512,286.485,493.909,267.947,471.339,266.859z M490.645,224    c0,11.755-9.557,21.333-21.333,21.333c-11.691,0-17.813,10.048-20.16,21.333h-42.304c6.507-25.749,33.195-64,62.464-64    C481.088,202.667,490.645,212.245,490.645,224z M64,170.667c0-29.397,23.915-53.333,53.333-53.333h277.333    c29.419,0,53.333,23.936,53.333,53.333v14.805c-33.536,12.715-57.664,52.736-62.869,81.195H126.869    c-5.205-28.459-29.333-68.48-62.869-81.195V170.667z M21.312,224c0-11.755,9.557-21.333,21.333-21.333    c29.291,0,55.979,38.251,62.485,64H62.827c-2.347-11.285-8.469-21.333-20.181-21.333C30.869,245.333,21.312,235.755,21.312,224z     M106.667,384c0,5.888-4.8,10.667-10.667,10.667H74.667C68.8,394.667,64,389.888,64,384v-32h42.667V384z M448,384    c0,5.888-4.8,10.667-10.667,10.667H416c-5.867,0-10.667-4.779-10.667-10.667v-32H448V384z M469.333,330.667h-10.667h-64H117.333    h-64H42.667c-11.776,0-21.333-9.579-21.333-21.333c0-11.755,9.557-21.333,21.333-21.333h10.667h64h277.333h64h10.667    c11.776,0,21.333,9.579,21.333,21.333C490.667,321.088,481.109,330.667,469.333,330.667z" fill="#FFFFFF"/>
	</g>
</g>
<g>
	<g>
		<path d="M202.816,202.667c-1.451-0.171-3.499-1.301-5.717-2.773c9.259-10.411,16.235-21.824,16.235-29.227    c0-5.888-4.757-10.944-10.645-10.944s-10.645,4.48-10.645,10.368c-0.661,3.2-5.205,9.408-10.752,15.552    c-5.504-6.037-9.984-12.032-10.624-14.976c0-5.888-4.779-10.667-10.667-10.667s-10.667,4.779-10.667,10.667    c0,7.403,6.976,18.816,16.235,29.227c-2.197,1.451-4.224,2.581-5.675,2.773c-5.824,0.043-10.56,4.821-10.56,10.667    c0,5.888,4.779,10.667,10.667,10.667c6.144,0,13.781-3.947,21.333-9.579c7.552,5.611,15.189,9.579,21.333,9.579    c5.888,0,10.752-4.779,10.752-10.667S208.704,202.667,202.816,202.667z" fill="#FFFFFF"/>
	</g>
</g>
<g>
	<g>
		<path d="M352.149,202.667c-1.451-0.171-3.499-1.301-5.717-2.773c9.259-10.411,16.235-21.824,16.235-29.227    c0-5.888-4.757-10.944-10.645-10.944s-10.645,4.48-10.645,10.368c-0.661,3.2-5.205,9.408-10.752,15.552    c-5.504-6.037-9.984-12.032-10.624-14.976c0-5.888-4.779-10.667-10.667-10.667s-10.667,4.779-10.667,10.667    c0,7.403,6.976,18.816,16.235,29.227c-2.197,1.472-4.224,2.603-5.675,2.773c-5.824,0.043-10.56,4.821-10.56,10.667    c0,5.888,4.779,10.667,10.667,10.667c6.144,0,13.781-3.947,21.333-9.579C338.219,220.032,345.856,224,352,224    c5.888,0,10.752-4.779,10.752-10.667S358.037,202.667,352.149,202.667z" fill="#FFFFFF"/>
	</g>
</g>
<g>
</g>
<g>
</g>
<g>
</g>
<g>
</g>
<g>
</g>
<g>
</g>
<g>
</g>
<g>
</g>
<g>
</g>
<g>
</g>
<g>
</g>
<g>
</g>
<g>
</g>
<g>
</g>
<g>
</g>
</svg>
