<?xml version="1.0" encoding="utf-8"?>
<!-- Generator: Adobe Illustrator 21.0.0, SVG Export Plug-In . SVG Version: 6.00 Build 0)  -->
<!DOCTYPE svg PUBLIC "-//W3C//DTD SVG 1.1//EN" "http://www.w3.org/Graphics/SVG/1.1/DTD/svg11.dtd">
<svg version="1.1" id="Layer_1" xmlns="http://www.w3.org/2000/svg" xmlns:xlink="http://www.w3.org/1999/xlink" x="0px" y="0px"
	 viewBox="0 0 462.4 511.9" style="enable-background:new 0 0 462.4 511.9;" xml:space="preserve">
<style type="text/css">
	.st0{fill:#FFFFFF;}
</style>
<g>
	<g>
		<g>
			<path class="st0" d="M288,41.2c0.6,0.1,63.8,8.5,102.5,47.2l11.7-11.7c-42.8-42.8-109.3-51.6-112.1-51.9L288,41.2z"/>
			<path class="st0" d="M113.3,195.8c39.2-39.3,93.1-63.6,142.6-63.6v-16.5c-57.8,0-111.5,25.6-154.3,68.5
				c-18.1,18.1-41.9,50-51,68.2l14.8,7.4C72.8,244.7,94.9,214.1,113.3,195.8z"/>
			<path class="st0" d="M272.5,132.1c33,0,69.1,23,76.7,30.6l11.6-11.7c-10.3-10.3-55.4-35.5-88.4-35.5L272.5,132.1L272.5,132.1z"/>
			<path class="st0" d="M435.2,68.5C390.4,23.7,328.5,0,256.1,0C189.2,0,139.6,22.2,85.2,76.7C49.4,112.5,30.4,164.1,25.4,179
				l1.3,0.4c-6.3,6.7-10,15.1-10,26.9c0,26.3-0.3,29.9-5.8,35.5C-2.2,255-3.4,275.4,7,290c-4.3,16.6-6.7,33.1-6.7,48.5
				c0,55.5,28.1,122.4,68.4,162.7c7.2,7.2,14.5,10.7,22.3,10.7l0,0c11.7,0,21.3-9.6,30.6-18.9l313.6-313.7
				c13.1-13.1,27.2-34.6,27.2-55.4C462.4,103.6,454.8,88.1,435.2,68.5z M70.3,122.5c-2.6,4.9-4.1,10.9-4.1,17.9
				c0,6.3-9.9,18.7-17.6,24C54.4,150.8,61.6,136.3,70.3,122.5z M33.2,206.5c0-11.9,4.7-17.9,20.2-25.6c10.3-5.2,29.3-24.4,29.3-40.4
				c0-11.9,4.6-16.5,16.5-16.5c10.7,0,30.7,0,40.9-30.4c2-6.1,5.6-10.5,10.1-12.3c3.6-1.5,7.7-1.3,11.4,0.6
				c9.4,4.7,20.2,5.9,30.5,3.4c10.1-2.4,18.2-8.2,21.8-15.4c2.6-5.2,6.2-8.3,10.5-9c3.4-0.6,6.9,0.5,9.3,2.9
				c19.2,19.3,45.8,16.4,59,9.8c5.6-2.8,10.6-3.7,14.5-2.4c3.9,1.3,6.2,4.5,7.4,7c10.4,20.9,31.6,21.1,49.1,21.2
				c7.3,0.1,16.1,3,16.1,16.4c0,8.5,6.2,18.1,12.7,25c-4.5,0-9.8-1.7-15.7-6.5c-33.4-27.9-76.1-43.2-120.2-43.2c-0.2,0-0.4,0-0.6,0
				c-63.4,0.2-132,29.6-179.1,76.7c-17,17-31.9,37.2-44,58.7C33.2,220.8,33.2,214.5,33.2,206.5z M423.5,167.6L109.9,481.4
				c-6.3,6.3-14.1,14.1-18.9,14.1c-1-0.1-4.8,0-10.7-5.8c-36.8-36.9-63.6-100.4-63.6-151.1c0-52.3,28.9-116.3,71.9-159.3
				c44.1-44.2,108.3-71.7,167.5-71.9c0.2,0,0.4,0,0.5,0c40.3,0,79.2,14,109.7,39.4c19.6,16.3,40.4,11.5,52.4-0.5
				c12.4-12.4,16.6-35,0.2-52.7l-12.1,11.2c8.8,9.5,7.5,20.9,1.6,28.2c-6.5-5.1-12.1-14.1-12.1-17.3c0-19.5-13-32.7-32.9-32.9
				c-17.9-0.1-28.4-0.8-34-12.1c-3.8-7.5-9.8-12.9-17.1-15.3c-5.6-1.8-14.9-2.7-27,3.4c-5.8,2.9-25.5,7.8-40-6.7
				c-6.1-6.1-14.9-8.9-23.6-7.5c-9.5,1.4-17.5,7.8-22.5,17.8c-1.2,2.3-5,5.3-10.9,6.7c-6.4,1.6-13.5,0.8-19.3-2.2
				c-8-4-17.1-4.4-25.1-1.1c-8.9,3.7-15.8,11.6-19.4,22.4c-6.4,19.1-15.5,19.1-25.2,19.1c-11.6,0-20.3,3.8-25.9,10.6
				c7.1-10.7,14.9-20.9,23.5-29.5c51.7-51.7,96.3-71.9,159.2-71.9c68.9,0,125.3,21.4,167.5,63.6c18.6,18.6,22.3,30.5,22.3,43.7
				C445.9,136.8,437.1,154,423.5,167.6z"/>
			<path class="st0" d="M91,396.4c-13.6,0-24.8,11.1-24.8,24.8S77.3,446,91,446s24.8-11.1,24.8-24.8S104.7,396.4,91,396.4z
				 M91,429.4c-4.6,0-8.3-3.7-8.3-8.3s3.7-8.3,8.3-8.3c4.6,0,8.3,3.7,8.3,8.3S95.6,429.4,91,429.4z"/>
			<circle class="st0" cx="74.5" cy="313.8" r="16.5"/>
			<path class="st0" d="M156.9,247.7c0-18.2-16.6-33-33.1-33v16.5c8.3,0,16.6,7.4,16.6,16.5c0,9.1-7.3,16.5-16.4,16.5
				c-9.1,0-16.5-7.4-16.5-16.5H91c0,18.2,14.8,33,33,33S156.9,266,156.9,247.7z"/>
			<path class="st0" d="M214.8,280.8c-13.6,0-24.8,11.1-24.8,24.8c0,13.7,11.1,24.8,24.8,24.8c13.6,0,24.8-11.1,24.8-24.8
				S228.5,280.8,214.8,280.8z M214.8,313.8c-4.6,0-8.3-3.7-8.3-8.3s3.7-8.3,8.3-8.3s8.3,3.7,8.3,8.3S219.3,313.8,214.8,313.8z"/>
			<path class="st0" d="M272.6,214.7c-9.1,0-16.6-7.4-16.6-16.5s8.2-16.5,16.4-16.5v-16.5c-16.5,0-33,14.8-33,33s14.8,33,33,33
				s33-14.8,33-33h-16.5C289.1,207.3,281.7,214.7,272.6,214.7z"/>
			<path class="st0" d="M132.1,371.6c0,18.2,16.5,33,33,33v-16.5c-8.3,0-16.5-7.4-16.5-16.5s8.2-16.5,16.5-16.5v-16.5
				C148.6,338.6,132.1,353.4,132.1,371.6z"/>
		</g>
	</g>
</g>
</svg>
