<?xml version="1.0" encoding="iso-8859-1"?>
<!-- Generator: Adobe Illustrator 19.0.0, SVG Export Plug-In . SVG Version: 6.00 Build 0)  -->
<svg xmlns="http://www.w3.org/2000/svg" xmlns:xlink="http://www.w3.org/1999/xlink" version="1.1" id="Layer_1" x="0px" y="0px" viewBox="0 0 490.667 490.667" style="enable-background:new 0 0 490.667 490.667;" xml:space="preserve" width="512px" height="512px">
<g>
	<g>
		<g>
			<path d="M219.413,229.909c-1.216-4.736-5.461-8.021-10.325-8.021c-0.896,0-1.771,0.107-2.645,0.341     c-5.696,1.451-9.152,7.275-7.701,12.971l10.496,41.344c1.429,5.589,7.317,9.237,12.971,7.701     c2.752-0.704,5.077-2.432,6.528-4.885c1.451-2.453,1.877-5.312,1.173-8.064L219.413,229.909z" fill="#FFFFFF"/>
			<path d="M462.805,209.045c-7.573-5.568-17.003-12.523-18.219-17.109c-1.344-5.056,3.477-16.128,7.339-25.024     c6.656-15.296,13.525-31.104,5.888-44.288c-7.723-13.333-25.003-15.296-41.728-17.173c-9.515-1.067-21.376-2.389-24.939-5.952     c-3.563-3.563-4.885-15.403-5.952-24.939c-1.877-16.704-3.819-34.005-17.173-41.728c-11.605-6.72-28.779-0.853-44.267,5.888     c-8.512,3.712-17.237,7.147-25.024,7.339c-4.608-1.237-11.563-10.667-17.131-18.219C272,14.805,261.077,0,245.333,0     s-26.667,14.805-36.288,27.861c-5.568,7.573-12.523,17.003-19.051,18.432c-5.76,0-14.571-3.84-23.104-7.552     c-15.509-6.741-32.704-12.608-44.288-5.888c-13.333,7.723-15.296,25.003-17.173,41.728c-1.067,9.515-2.389,21.376-5.952,24.939     c-3.563,3.563-15.403,4.885-24.939,5.952c-16.704,1.877-34.005,3.819-41.728,17.173c-7.616,13.163-0.747,28.971,5.888,44.267     c3.883,8.896,8.704,19.989,7.339,25.024c-1.237,4.608-10.667,11.563-18.219,17.131C14.805,218.667,0,229.589,0,245.333     S14.805,272,27.861,281.621c7.573,5.568,17.003,12.523,18.219,17.109c1.344,5.056-3.477,16.128-7.339,25.024     c-6.656,15.296-13.525,31.104-5.888,44.288c7.723,13.333,25.003,15.296,41.728,17.173c9.515,1.067,21.376,2.389,24.939,5.952     c3.563,3.563,4.885,15.424,5.952,24.939c1.877,16.725,3.819,33.984,17.152,41.728c11.584,6.741,28.779,0.853,44.288-5.888     c8.512-3.712,17.429-7.232,25.024-7.339c4.608,1.237,11.563,10.667,17.131,18.219c9.6,13.035,20.523,27.84,36.267,27.84     c15.744,0,26.667-14.805,36.288-27.861c5.568-7.573,12.523-17.003,19.051-18.432c5.76,0,14.571,3.84,23.104,7.552     c15.509,6.741,32.704,12.629,44.288,5.888c13.355-7.723,15.296-25.003,17.173-41.728c1.067-9.536,2.389-21.376,5.931-24.939     c3.563-3.563,15.424-4.885,24.939-5.952c16.704-1.877,33.984-3.819,41.728-17.173c7.616-13.163,0.747-28.971-5.888-44.267     c-3.883-8.896-8.704-19.989-7.339-25.024c1.237-4.608,10.667-11.563,18.219-17.131c13.035-9.6,27.84-20.523,27.84-36.267     S475.861,218.667,462.805,209.045z M152.384,228.843l-9.984,90.539c-0.491,4.437-3.669,8.064-7.979,9.173     c-0.875,0.235-1.749,0.341-2.624,0.341c-3.435,0-6.72-1.664-8.768-4.565l-52.032-74.816c-3.371-4.843-2.176-11.499,2.667-14.848     c4.821-3.371,11.499-2.176,14.848,2.667l35.797,51.477l6.869-62.315c0.661-5.845,5.867-9.984,11.776-9.429     C148.8,217.707,153.045,222.976,152.384,228.843z M247.083,290.24c-4.373,7.339-11.328,12.544-19.605,14.656     c-2.603,0.661-5.248,0.981-7.893,0.981c-14.656,0-27.413-9.92-31.019-24.128l-10.517-41.344     c-4.352-17.109,6.037-34.56,23.104-38.891c16.917-4.352,34.645,6.336,38.912,23.104l10.517,41.365     C252.693,274.283,251.456,282.901,247.083,290.24z M320.149,193.301l-20.672,5.248l18.389,72.363     c1.451,5.717-2.005,11.52-7.701,12.949c-0.875,0.235-1.771,0.341-2.645,0.341c-4.757,0-9.109-3.2-10.325-8.043l-18.389-72.363     l-20.672,5.269c-0.875,0.235-1.771,0.341-2.645,0.341c-4.757,0-9.109-3.2-10.325-8.043c-1.451-5.717,2.005-11.52,7.701-12.949     l62.016-15.765c5.632-1.472,11.52,1.984,12.949,7.701C329.323,186.048,325.845,191.851,320.149,193.301z M413.547,257.6     l-41.344,10.517c-0.875,0.235-1.771,0.341-2.645,0.341c-4.757,0-9.109-3.2-10.325-8.043l-21.035-82.688     c-0.704-2.731-0.277-5.653,1.173-8.064c1.451-2.432,3.797-4.203,6.549-4.885l41.344-10.517c5.589-1.451,11.52,1.984,12.949,7.701     c1.451,5.717-2.005,11.52-7.701,12.949l-31.019,7.893l5.269,20.693l10.347-2.624c5.632-1.493,11.52,1.984,12.949,7.701     c1.451,5.717-1.984,11.52-7.701,12.949l-10.347,2.624l5.248,20.672l31.019-7.872c5.632-1.493,11.52,1.984,12.949,7.701     C422.699,250.347,419.243,256.149,413.547,257.6z" fill="#FFFFFF"/>
		</g>
	</g>
</g>
<g>
</g>
<g>
</g>
<g>
</g>
<g>
</g>
<g>
</g>
<g>
</g>
<g>
</g>
<g>
</g>
<g>
</g>
<g>
</g>
<g>
</g>
<g>
</g>
<g>
</g>
<g>
</g>
<g>
</g>
</svg>
